HIERARCHY
ROOT Hips
{
	OFFSET 0.000000 0.000000 0.000000
	CHANNELS 6 Xposition Yposition Zposition Zrotation Yrotation Xrotation 
	JOINT LHipJoint
	{
		OFFSET 0.000000 0.000000 0.000000
		CHANNELS 3 Zrotation Yrotation Xrotation
		JOINT LeftUpLeg
		{
			OFFSET 1.363060 -1.794630 0.839290
			CHANNELS 3 Zrotation Yrotation Xrotation
			JOINT LeftLeg
			{
				OFFSET 2.448110 -6.726130 0.000000
				CHANNELS 3 Zrotation Yrotation Xrotation
				JOINT LeftFoot
				{
					OFFSET 2.562200 -7.039590 0.000000
					CHANNELS 3 Zrotation Yrotation Xrotation
					JOINT LeftToeBase
					{
						OFFSET 0.157640 -0.433110 2.322550
						CHANNELS 3 Zrotation Yrotation Xrotation
						End Site
						{
							OFFSET 0.000000 0.000000 0.000000
						}
					}
				}
			}
		}
	}
	JOINT RHipJoint
	{
		OFFSET 0.000000 0.000000 0.000000
		CHANNELS 3 Zrotation Yrotation Xrotation
		JOINT RightUpLeg
		{
			OFFSET -1.305520 -1.794630 0.839290
			CHANNELS 3 Zrotation Yrotation Xrotation
			JOINT RightLeg
			{
				OFFSET -2.542530 -6.985550 0.000000
				CHANNELS 3 Zrotation Yrotation Xrotation
				JOINT RightFoot
				{
					OFFSET -2.568260 -7.056230 0.000000
					CHANNELS 3 Zrotation Yrotation Xrotation
					JOINT RightToeBase
					{
						OFFSET -0.164730 -0.452590 2.363150
						CHANNELS 3 Zrotation Yrotation Xrotation
						End Site
						{
							OFFSET 0.000000 0.000000 0.000000
						}
					}
				}
			}
		}
	}
	JOINT LowerBack
	{
		OFFSET 0.000000 0.000000 0.000000
		CHANNELS 3 Zrotation Yrotation Xrotation
		JOINT Spine
		{
			OFFSET 0.028270 2.035590 -0.193380
			CHANNELS 3 Zrotation Yrotation Xrotation
			JOINT Spine1
			{
				OFFSET 0.056720 2.048850 -0.042750
				CHANNELS 3 Zrotation Yrotation Xrotation
				JOINT Neck
				{
					OFFSET 0.000000 0.000000 0.000000
					CHANNELS 3 Zrotation Yrotation Xrotation
					JOINT Neck1
					{
						OFFSET -0.054170 1.746240 0.172020
						CHANNELS 3 Zrotation Yrotation Xrotation
						JOINT Head
						{
							OFFSET 0.104070 1.761360 -0.123970
							CHANNELS 3 Zrotation Yrotation Xrotation
							End Site
							{
								OFFSET 0.000000 0.000000 0.000000
							}
						}
					}
				}
				JOINT LeftShoulder
				{
					OFFSET 0.000000 0.000000 0.000000
					CHANNELS 3 Zrotation Yrotation Xrotation
					JOINT LeftArm
					{
						OFFSET 3.362410 1.200890 -0.311210
						CHANNELS 3 Zrotation Yrotation Xrotation
						JOINT LeftForeArm
						{
							OFFSET 4.983000 -0.000000 -0.000000
							CHANNELS 3 Zrotation Yrotation Xrotation
							JOINT LeftHand
							{
								OFFSET 3.483560 -0.000000 -0.000000
								CHANNELS 3 Zrotation Yrotation Xrotation
								JOINT LeftFingerBase
								{
									OFFSET 0.000000 0.000000 0.000000
									CHANNELS 3 Zrotation Yrotation Xrotation
									JOINT LeftHandIndex1
									{
										OFFSET 0.715260 -0.000000 -0.000000
										CHANNELS 3 Zrotation Yrotation Xrotation
										End Site
										{
											OFFSET 0.000000 0.000000 0.000000
										}
									}
								}
								JOINT LThumb
								{
									OFFSET 0.000000 0.000000 0.000000
									CHANNELS 3 Zrotation Yrotation Xrotation
									End Site
									{
										OFFSET 0.000000 0.000000 0.000000
									}
								}
							}
						}
					}
				}
				JOINT RightShoulder
				{
					OFFSET 0.000000 0.000000 0.000000
					CHANNELS 3 Zrotation Yrotation Xrotation
					JOINT RightArm
					{
						OFFSET -3.136600 1.374050 -0.404650
						CHANNELS 3 Zrotation Yrotation Xrotation
						JOINT RightForeArm
						{
							OFFSET -5.241900 -0.000000 -0.000000
							CHANNELS 3 Zrotation Yrotation Xrotation
							JOINT RightHand
							{
								OFFSET -3.444170 -0.000000 -0.000000
								CHANNELS 3 Zrotation Yrotation Xrotation
								JOINT RightFingerBase
								{
									OFFSET 0.000000 0.000000 0.000000
									CHANNELS 3 Zrotation Yrotation Xrotation
									JOINT RightHandIndex1
									{
										OFFSET -0.622530 -0.000000 -0.000000
										CHANNELS 3 Zrotation Yrotation Xrotation
										End Site
										{
											OFFSET 0.000000 0.000000 0.000000
										}
									}
								}
								JOINT RThumb
								{
									OFFSET 0.000000 0.000000 0.000000
									CHANNELS 3 Zrotation Yrotation Xrotation
									End Site
									{
										OFFSET 0.000000 0.000000 0.000000
									}
								}
							}
						}
					}
				}
			}
		}
	}
}
MOTION
Frames: 7
Frame Time: 0.008333
16.953654 18.374607 20.986005 175.722483 -1.260971 -152.802716 22.269192 5.476234 -0.354888 -49.334160 -22.885272 -15.431914 2.488658 4.992858 12.424824 -1.498973 -14.113422 -31.745967 2.183400 -9.238000 -26.542700 -26.809111 -7.584240 -1.359517 47.197642 18.333317 -13.211799 -3.136268 -3.673230 9.472093 -1.598452 7.733203 -34.951120 -3.445700 11.383800 -33.585600 -7.964559 -0.931813 -29.586012 1.151254 -0.082887 -6.414216 1.226406 -1.761167 20.382409 -8.639471 -0.505591 -4.390991 11.150706 -1.970507 5.783939 0.919200 -0.761600 2.183700 16.874459 -2.742165 0.655651 -108.319946 -3.872811 16.773493 15.799015 -16.019573 -2.080919 -0.537193 0.346227 5.373274 21.577311 -11.672600 -4.815400 -7.125000 0.000000 0.000000 -3.518500 17.126400 2.330800 -11.290313 0.686009 0.369362 101.385466 -2.576700 4.092640 -18.252949 27.488699 -4.019210 0.024425 -0.313434 0.177114 -6.489268 -55.376512 5.348800 7.125000 0.000000 0.000000 76.324700 -74.168600 -59.850300 
16.955187 18.373585 20.990910 175.661152 -1.243586 -152.634921 22.267500 5.487027 -0.363029 -49.347706 -22.895993 -15.665442 2.488972 5.031039 12.498386 -1.580167 -14.267348 -31.690119 2.137600 -9.147000 -26.256100 -26.811443 -7.580645 -1.286931 47.069082 18.528234 -13.498774 -3.140490 -3.724730 9.550486 -1.577987 7.833771 -35.114803 -3.075300 10.816000 -31.661800 -8.067877 -0.948275 -29.723514 1.111335 -0.078880 -6.464968 1.282892 -1.773847 20.444503 -8.622605 -0.389897 -4.135386 11.160586 -1.855609 5.248029 0.923300 -0.746600 2.047000 16.894433 -2.783228 0.645273 -108.280091 -3.981343 16.985817 15.952463 -16.281401 -2.141645 -0.534173 0.343291 5.127314 21.434987 -11.916883 -4.875700 -7.125000 0.000000 0.000000 -3.630400 16.880200 2.424800 -11.289740 0.646201 0.352828 101.410447 -2.591486 4.175065 -18.315515 27.577466 -4.050653 0.020287 -0.307313 0.176266 -7.921615 -55.842039 6.562600 7.125000 0.000000 0.000000 77.620500 -74.763000 -61.781300 
16.956617 18.372257 20.995508 175.586401 -1.207982 -152.481432 22.261449 5.495865 -0.355585 -49.389105 -22.942038 -15.855960 2.483260 5.055030 12.535894 -1.629474 -14.386775 -31.712788 2.232600 -9.334600 -26.847800 -26.809125 -7.593206 -1.243797 46.933445 18.587744 -13.768921 -3.151517 -3.757122 9.598503 -1.533537 8.014286 -35.241057 -2.724300 10.234800 -29.740600 -8.178727 -0.978530 -29.836207 1.067407 -0.092918 -6.514634 1.320608 -1.795387 20.464446 -8.674286 -0.317650 -4.121144 11.275185 -1.769511 5.077721 0.956400 -0.715800 2.018000 16.915712 -2.794739 0.643776 -108.238863 -4.054729 17.110149 16.118308 -16.561481 -2.206769 -0.528851 0.336510 4.931517 21.265591 -12.053995 -4.884100 -7.125000 0.000000 0.000000 -3.758300 16.755800 2.520700 -11.285526 0.633087 0.349720 101.454068 -2.577640 4.117797 -18.302235 27.567061 -4.048444 0.020911 -0.310505 0.285404 -8.016360 -55.097574 6.582600 7.125000 0.000000 0.000000 74.868000 -74.673600 -59.036100 
16.959478 18.371542 20.997755 175.628759 -1.246403 -152.504367 22.268801 5.491191 -0.345659 -49.323591 -22.965360 -15.855417 2.485891 5.052101 12.526346 -1.622181 -14.366205 -31.716615 2.220600 -9.311300 -26.774000 -26.812455 -7.593868 -1.266360 47.021746 18.528594 -13.657614 -3.143381 -3.717395 9.475743 -1.552861 7.830989 -35.031676 -3.009700 10.710700 -31.310200 -8.179492 -0.997486 -29.820027 1.118625 -0.107762 -6.486970 1.325876 -1.798974 20.483822 -8.867677 -0.202073 -4.096654 11.464455 -1.623167 4.785049 1.028100 -0.664300 1.967500 16.927199 -2.808225 0.633872 -108.228414 -4.184856 17.243049 16.243110 -16.777338 -2.254843 -0.533964 0.321815 4.928448 21.392849 -11.889051 -4.845700 -7.125000 0.000000 0.000000 -3.660000 16.936200 2.440100 -11.280192 0.613452 0.337666 101.458483 -2.554928 4.185001 -18.407114 27.700604 -4.090360 0.022253 -0.307358 0.213158 -7.294561 -55.714892 6.035400 7.125000 0.000000 0.000000 77.315400 -74.517200 -61.205200 
16.961215 18.372563 21.002558 175.667678 -1.344811 -152.554600 22.268627 5.492257 -0.341067 -49.263577 -22.947125 -15.857682 2.494270 5.058553 12.557542 -1.667619 -14.448091 -31.655560 2.273500 -9.414000 -27.099100 -26.814479 -7.590594 -1.294575 47.123382 18.464339 -13.512154 -3.136673 -3.666332 9.361172 -1.548787 7.862730 -34.982275 -2.829800 10.414300 -30.328900 -8.142098 -1.023008 -29.718321 1.135625 -0.151871 -6.492165 1.310395 -1.812311 20.439405 -8.844415 -0.245272 -4.116247 11.428575 -1.677106 4.885042 1.015400 -0.683700 1.986400 16.932618 -2.804766 0.634028 -108.196647 -4.260545 17.491972 16.377759 -16.993311 -2.307516 -0.543226 0.309740 4.821222 21.613848 -11.815878 -4.867200 -7.125000 0.000000 0.000000 -3.497400 17.006600 2.325900 -11.283014 0.623720 0.339605 101.496649 -2.549027 4.321505 -18.496041 27.817635 -4.125606 0.022413 -0.303504 -0.174232 -7.009826 -56.678372 5.864400 7.125000 0.000000 0.000000 80.878000 -74.533700 -64.702600 
16.958763 18.373892 21.002047 175.697625 -1.317132 -152.641357 22.264528 5.491998 -0.350866 -49.278676 -22.889813 -15.739403 2.496023 5.041980 12.533529 -1.643612 -14.401579 -31.655704 2.261400 -9.390600 -27.024900 -26.812714 -7.588594 -1.312434 47.158830 18.417250 -13.417656 -3.139215 -3.651662 9.373783 -1.522073 8.040096 -35.047641 -2.675300 10.149800 -29.463200 -8.070631 -1.002290 -29.658158 1.102468 -0.152685 -6.487579 1.282012 -1.805090 20.408243 -8.694623 -0.348401 -4.167301 11.246630 -1.800008 5.164387 0.953700 -0.724500 2.038700 16.941112 -2.788256 0.641902 -108.149284 -4.246681 17.762605 16.567936 -17.297819 -2.386910 -0.539051 0.301626 4.443969 21.441397 -11.986460 -4.889100 -7.125000 0.000000 0.000000 -3.628600 16.846200 2.426200 -11.293313 0.647471 0.348321 101.529248 -2.561199 4.452964 -18.562201 27.908768 -4.153406 0.022133 -0.300334 -0.348166 -6.763149 -57.558934 5.714100 7.125000 0.000000 0.000000 84.123500 -74.504300 -67.901100 
16.957537 18.374198 21.001945 175.729528 -1.258802 -152.681711 22.267058 5.493879 -0.356616 -49.272850 -22.864623 -15.685665 2.494375 5.033908 12.513233 -1.594953 -14.306521 -31.702497 2.246800 -9.362200 -26.935100 -26.808617 -7.586717 -1.316816 47.171433 18.403044 -13.398262 -3.140904 -3.650392 9.388746 -1.501304 8.127904 -35.051921 -2.677000 10.152800 -29.473000 -8.072831 -0.989046 -29.640473 1.155218 -0.127764 -6.502915 1.318074 -1.795117 20.400448 -8.742454 -0.362982 -4.078631 11.206540 -1.826062 5.201771 0.955300 -0.735900 2.029500 16.944028 -2.795767 0.643094 -108.181944 -4.270711 17.925963 16.746142 -17.593709 -2.462774 -0.533755 0.287084 4.116089 21.230589 -11.982120 -4.829800 -7.125000 0.000000 0.000000 -3.780000 16.883500 2.524800 -11.305532 0.650277 0.355056 101.452958 -2.633315 4.506040 -18.538951 27.868602 -4.145306 0.025329 -0.308545 -0.506611 -6.985586 -56.192201 5.811800 7.125000 0.000000 0.000000 79.105500 -74.471700 -62.891600 
